# xmcd CD Database Entry
#
# Track frame offsets:
# 150
# 17123
# 34638
# 51475
# 74281
# 91090
# 105749
# 125796
# 143114
# 159467
#
# Disc length: 3147 seconds
#
# Revision: 4
# Processed by: cddbd v1.4PL0 Copyright (c) Steve Scherf et al.
# Submitted via: tcd 2.0b
#
DISCID=870c490a
DTITLE=19Wheels - Sugareen
DYEAR=1900
DGENRE=
TTITLE0=So Cool
TTITLE1=TV Queen
TTITLE2=Broken
TTITLE3=Happens All Over The World
TTITLE4=Rabies
TTITLE5=360
TTITLE6=Boomtown
TTITLE7=Good Enough
TTITLE8=Loveydoveytown
TTITLE9=You Ain't Seen Nothing Yet
EXTD=
EXTT0=
EXTT1=
EXTT2=
EXTT3=
EXTT4=
EXTT5=
EXTT6=
EXTT7=
EXTT8=
EXTT9=
PLAYORDER=
